<?xml version="1.0" standalone="no"?>
<!DOCTYPE svg PUBLIC "-//W3C//DTD SVG 20010904//EN"
 "http://www.w3.org/TR/2001/REC-SVG-20010904/DTD/svg10.dtd">
<svg version="1.0" xmlns="http://www.w3.org/2000/svg"
 width="48.000000pt" height="48.000000pt" viewBox="0 0 48.000000 48.000000"
 preserveAspectRatio="xMidYMid meet">

<g transform="translate(0.000000,48.000000) scale(0.100000,-0.100000)"
fill="#000000" stroke="none">
<path d="M143 448 c-11 -13 -23 -30 -26 -40 -3 -9 -20 -19 -37 -23 -42 -9 -67
-47 -52 -80 9 -20 8 -25 -8 -30 -20 -6 -29 -45 -11 -45 5 0 8 -8 7 -17 -2 -27
29 -26 44 2 16 30 24 31 50 5 33 -33 110 -18 110 21 0 5 8 9 19 9 24 0 39 19
47 58 4 18 13 32 20 32 10 0 14 15 13 58 -1 31 -3 49 -6 40 -2 -10 -11 -18
-19 -18 -8 0 -15 -10 -15 -22 -1 -19 -3 -17 -9 7 l-8 30 -2 -35 -2 -35 -14 44
c-20 66 -62 82 -101 39z m75 -116 c4 -41 -12 -62 -49 -62 -32 0 -59 23 -59 50
0 26 39 51 75 48 26 -3 30 -7 33 -36z m-135 -79 c-7 -2 -19 -2 -25 0 -7 3 -2
5 12 5 14 0 19 -2 13 -5z"/>
<path d="M330 400 c0 -27 2 -50 3 -50 11 0 68 33 73 42 8 13 -40 58 -62 58
-10 0 -14 -13 -14 -50z"/>
<path d="M430 362 c0 -5 7 -15 15 -22 8 -7 15 -8 15 -2 0 5 -7 15 -15 22 -8 7
-15 8 -15 2z"/>
<path d="M448 266 c-12 -9 -18 -31 -20 -81 -2 -38 -8 -70 -14 -72 -11 -4 -12
-1 -15 65 -1 23 -5 42 -10 42 -17 0 -59 -44 -59 -62 0 -15 -3 -17 -19 -8 -27
14 -38 13 -45 -5 -4 -10 3 -19 18 -26 22 -10 23 -14 14 -56 -6 -24 -8 -47 -5
-49 13 -14 67 15 112 60 53 53 75 103 75 170 0 39 -5 43 -32 22z m-121 -168
c-3 -8 -6 -5 -6 6 -1 11 2 17 5 13 3 -3 4 -12 1 -19z"/>
<path d="M120 176 c0 -15 36 -36 61 -36 36 0 38 17 3 30 -26 10 -64 13 -64 6z"/>
<path d="M70 145 c0 -7 -7 -18 -16 -23 -14 -8 -12 -13 14 -43 l30 -34 12 43
c8 33 8 47 -1 58 -15 18 -39 18 -39 -1z"/>
<path d="M180 90 c8 -5 22 -9 30 -9 10 0 8 3 -5 9 -27 12 -43 12 -25 0z"/>
</g>
</svg>
